<svg viewBox="0 0 52 46" fill="none" xmlns="http://www.w3.org/2000/svg">
<path d="M50.4262 9.49343C49.8411 9.21831 49.1707 9.18687 48.5625 9.40604C47.9542 9.6252 47.4579 10.077 47.1828 10.6621C46.9077 11.2472 46.8763 11.9176 47.0954 12.5258C47.3146 13.1341 47.7664 13.6303 48.3515 13.9054C48.9365 14.1806 49.6069 14.212 50.2152 13.9928C50.8234 13.7737 51.3197 13.3219 51.5948 12.7368C51.87 12.1517 51.9014 11.4813 51.6822 10.8731C51.4631 10.2648 51.0112 9.76855 50.4262 9.49343ZM44.606 38.815C44.3843 38.7526 44.1524 38.7346 43.9238 38.7619C43.6951 38.7892 43.474 38.8613 43.2733 38.9741C43.0725 39.0869 42.8959 39.2382 42.7536 39.4193C42.6114 39.6003 42.5062 39.8077 42.4441 40.0295C42.3817 40.2511 42.3635 40.4829 42.3908 40.7116C42.418 40.9403 42.49 41.1613 42.6028 41.3621C42.7155 41.5629 42.8668 41.7395 43.0479 41.8818C43.2289 42.0241 43.4363 42.1293 43.658 42.1913C44.1061 42.3168 44.5856 42.2592 44.9912 42.0313C45.3968 41.8033 45.6953 41.4236 45.821 40.9757C45.946 40.528 45.8882 40.0491 45.6604 39.644C45.4326 39.2389 45.0534 38.9408 44.606 38.815ZM32.6938 27.5118L37.0044 31.2698L41.0034 30.9258L36.4524 26.761L42.689 23.903L36.7634 21.5486L32.4033 23.376L46.7724 14.5902C46.2914 14.1546 45.9273 13.6054 45.7134 12.9929L32.2233 23.1037L38.5436 16.9064L34.1436 16.7572L35.4031 12.0034L32.4631 13.301L30.3605 21.6437L33.3631 5.17142C32.7668 5.2293 32.166 5.12374 31.6251 4.86608L30.0386 21.5867L29.6774 12.6305L28.3809 10.316L26.4338 14.2598L21.4533 12.3639L22.9572 17.0466L26.1587 21.2489L28.5951 23.4256L12.4606 12.7234C12.278 14.5645 11.4119 16.2702 10.0333 17.504L28.1969 24.2043L18.5748 22.8918L14.7917 24.6259L21.1684 27.158L16.8424 31.5512L19.9482 31.6578L28.864 25.6723L13.5002 39.8569C14.0781 40.1567 14.5775 40.5882 14.958 41.1164L29.0958 25.8979L22.69 36.2561L26.9539 34.3768L29.1015 38.214L31.0503 34.2708L36.0269 36.1643L34.8853 32.6011L32.3913 27.7624L41.3583 38.901C41.6622 38.3717 42.1103 37.9396 42.6503 37.6551L32.6938 27.5118ZM33.7488 3.59061C33.9757 3.49897 34.1822 3.36354 34.3568 3.19207C34.5313 3.02059 34.6703 2.81641 34.7659 2.5912C34.8615 2.36598 34.9119 2.12415 34.914 1.87949C34.9162 1.63483 34.8701 1.39214 34.7785 1.16528C34.6868 0.938426 34.5514 0.73184 34.3799 0.55732C34.2084 0.3828 34.0043 0.243765 33.779 0.148152C33.5538 0.0525393 33.312 0.00222155 33.0673 7.19172e-05C32.8227 -0.00207772 32.58 0.0439824 32.3531 0.135623C31.8957 0.320969 31.5303 0.680112 31.3371 1.13435C31.144 1.58859 31.1388 2.10088 31.3226 2.55896C31.4142 2.78603 31.5495 2.99284 31.721 3.16758C31.8925 3.34232 32.0967 3.48158 32.322 3.57738C32.5473 3.67318 32.7893 3.72366 33.0341 3.72593C33.2789 3.7282 33.5218 3.68222 33.7488 3.59061ZM12.1353 41.3984C11.8475 41.3181 11.5466 41.2957 11.25 41.3324C10.9534 41.369 10.6671 41.4642 10.4075 41.6122C10.1479 41.7602 9.92022 41.9582 9.7376 42.1948C9.55499 42.4313 9.42106 42.7017 9.34357 42.9903C9.26607 43.2789 9.24654 43.58 9.2861 43.8762C9.32567 44.1724 9.42354 44.4578 9.57407 44.716C9.7246 44.9741 9.9248 45.1999 10.1631 45.3802C10.4014 45.5605 10.6731 45.6918 10.9624 45.7665C11.5395 45.9155 12.1521 45.8307 12.6669 45.5305C13.1818 45.2302 13.5574 44.7389 13.7119 44.1633C13.8665 43.5877 13.7876 42.9743 13.4923 42.4565C13.1971 41.9388 12.7094 41.5585 12.1353 41.3984ZM10.0697 11.7567C9.96493 8.97675 7.6185 6.81147 4.84368 6.91857C4.18225 6.94439 3.53239 7.10025 2.9312 7.37724C2.33001 7.65423 1.78926 8.04692 1.33984 8.5329C0.890413 9.01887 0.541114 9.58861 0.311884 10.2096C0.0826549 10.8306 -0.0220155 11.4906 0.00384966 12.152C0.113794 14.9234 2.45282 17.0933 5.23447 16.985C8.01441 16.8774 10.1825 14.5338 10.0697 11.7567Z" fill="#488EFF"/>
<path d="M33.5921 9.37379L33.1182 10.6464C33.097 10.7039 33.0931 10.7664 33.1072 10.8261C33.1212 10.8858 33.1524 10.9401 33.1971 10.9822C33.2417 11.0242 33.2977 11.0523 33.3581 11.0628C33.4185 11.0733 33.4807 11.0657 33.5369 11.0412L37.8538 9.13738L36.5054 14.225C36.4745 14.341 36.4701 14.4625 36.4927 14.5804C36.5152 14.6983 36.5641 14.8096 36.6357 14.906C36.7073 15.0024 36.7997 15.0814 36.906 15.137C37.0124 15.1927 37.1299 15.2237 37.2499 15.2276L40.4429 15.3358H40.4537C40.5357 15.3356 40.6145 15.3033 40.673 15.2458L41.6283 14.3036C41.6719 14.2609 41.7019 14.2063 41.7147 14.1467C41.7275 14.0871 41.7225 14.025 41.7004 13.9682C41.6782 13.9114 41.6399 13.8623 41.5901 13.827C41.5404 13.7918 41.4814 13.7719 41.4204 13.7699L38.3067 13.6645L39.8219 7.94052C39.86 7.79497 39.8564 7.64165 39.8116 7.49803C39.7668 7.35441 39.6825 7.22626 39.5684 7.12819C39.3377 6.93222 38.9988 6.8838 38.7282 7.00571L33.7585 9.19776C33.7204 9.21452 33.6861 9.23872 33.6575 9.26895C33.6289 9.29918 33.6067 9.33483 33.5921 9.37379ZM18.2199 12.8675C18.2334 12.9094 18.2555 12.948 18.2848 12.9809L19.8736 14.7428C19.9211 14.7961 19.9856 14.8312 20.056 14.8424C20.1265 14.8537 20.1987 14.8402 20.2604 14.8044C20.3223 14.7688 20.3701 14.7131 20.3959 14.6466C20.4217 14.58 20.424 14.5066 20.4022 14.4386L18.8573 9.62843L24.947 11.9464C25.0381 11.9811 25.1333 11.9976 25.2295 11.9976C25.536 11.9976 25.8112 11.8273 25.9462 11.5533L28.2886 6.80975L29.3806 8.75855C29.4376 8.85995 29.5458 8.92546 29.6564 8.91806C29.7018 8.91814 29.7467 8.90828 29.788 8.88916C29.8292 8.87004 29.8658 8.84214 29.8951 8.8074C29.9244 8.77266 29.9457 8.73193 29.9576 8.68807C29.9695 8.6442 29.9717 8.59827 29.964 8.55348L29.9526 6.59328C29.9522 6.5404 29.9385 6.48846 29.9127 6.44232L28.9403 4.70656C28.8722 4.58306 28.7724 4.48002 28.6511 4.4081C28.5298 4.33618 28.3915 4.29801 28.2504 4.29755H28.2225C28.077 4.30118 27.9353 4.34456 27.8127 4.42298C27.6901 4.5014 27.5913 4.61188 27.527 4.74245L24.8353 10.1947L17.8724 7.54518C17.7314 7.49252 17.5786 7.48025 17.4311 7.50974C17.2835 7.53922 17.1471 7.6093 17.0373 7.71209C16.9289 7.81604 16.8519 7.94822 16.8147 8.09368C16.7776 8.23914 16.7818 8.39209 16.8271 8.53525L18.2199 12.8675ZM37.4852 38.5814C37.4698 38.5402 37.4457 38.5027 37.4147 38.4715C37.3836 38.4402 37.3463 38.4159 37.3052 38.4002L32.536 36.5842C32.4458 36.5494 32.3501 36.5317 32.2534 36.5318C31.9515 36.5318 31.6701 36.7072 31.5362 36.9772L29.1927 41.7208L26.6081 37.1043C26.5108 36.9313 26.3527 36.8006 26.1645 36.7376C25.9763 36.6745 25.7714 36.6836 25.5896 36.763L20.9531 38.8076C20.8919 38.8345 20.841 38.8805 20.8078 38.9386L20.0012 40.357C19.9559 40.3769 19.916 40.4072 19.8848 40.4455C19.8535 40.4839 19.8318 40.529 19.8214 40.5774C19.8111 40.6257 19.8123 40.6758 19.8251 40.7236C19.8379 40.7713 19.8618 40.8154 19.895 40.8521C19.9281 40.8888 19.9695 40.9171 20.0157 40.9347C20.0619 40.9522 20.1116 40.9586 20.1607 40.9532C20.2099 40.9478 20.257 40.9308 20.2983 40.9036C20.3396 40.8764 20.3739 40.8398 20.3982 40.7968L25.5702 38.517L28.5393 43.824C28.6811 44.0763 28.9483 44.2324 29.2365 44.2324H29.2582C29.4034 44.2284 29.5449 44.185 29.6673 44.1067C29.7898 44.0284 29.8886 43.9183 29.9532 43.7881L32.6471 38.3347L37.5444 40.1987C37.6006 40.2199 37.6616 40.2245 37.7203 40.2119C37.779 40.1993 37.8328 40.1701 37.8753 40.1277C37.9178 40.0854 37.9472 40.0316 37.96 39.973C37.9727 39.9143 37.9683 39.8532 37.9472 39.7971L37.4852 38.5814ZM10.6514 33.234C10.543 33.3447 10.4692 33.4845 10.4388 33.6364C10.4083 33.7883 10.4227 33.9457 10.4801 34.0896C10.5375 34.2335 10.6354 34.3576 10.762 34.4469C10.8885 34.5362 11.0383 34.5869 11.1931 34.5926L15.9184 34.7527C15.9856 34.7548 16.0516 34.7355 16.107 34.6975L17.4463 33.7706C17.4957 33.7724 17.5448 33.7625 17.5897 33.7416C17.6345 33.7207 17.6737 33.6895 17.7041 33.6504C17.7345 33.6114 17.7552 33.5657 17.7644 33.5171C17.7737 33.4685 17.7713 33.4185 17.7574 33.371C17.7435 33.3235 17.7185 33.28 17.6845 33.2441C17.6506 33.2082 17.6085 33.1808 17.5619 33.1644C17.5153 33.1479 17.4654 33.1427 17.4164 33.1492C17.3673 33.1558 17.3206 33.1739 17.2799 33.2021L13.0656 33.058L17.4298 28.6249C17.6189 28.4335 17.6981 28.1623 17.6422 27.9003C17.6149 27.7714 17.5562 27.6513 17.4713 27.5505C17.3865 27.4498 17.2781 27.3715 17.1557 27.3226L10.6343 24.733L14.9062 22.775C14.968 22.7464 15.0188 22.6983 15.0508 22.6381C15.0828 22.5778 15.0941 22.5088 15.0831 22.4415C15.0722 22.3742 15.0394 22.3123 14.99 22.2654C14.9405 22.2184 14.8771 22.1889 14.8093 22.1815L12.9089 21.9815C12.8534 21.9757 12.7973 21.985 12.7466 22.0083L8.27019 24.0596C8.12807 24.1249 8.00823 24.2304 7.92554 24.3631C7.84284 24.4958 7.80092 24.6499 7.80499 24.8062C7.80905 24.9625 7.85892 25.1142 7.9484 25.2425C8.03788 25.3707 8.16304 25.4699 8.30835 25.5276L15.4479 28.3628L10.6514 33.234ZM49.1729 23.0023L41.8254 20.0834C41.7659 20.0596 41.7004 20.0548 41.638 20.0697L40.1455 20.4252C40.0967 20.4366 40.0514 20.4596 40.0135 20.4923C39.9755 20.525 39.9459 20.5663 39.9273 20.6128C39.9087 20.6593 39.9016 20.7096 39.9065 20.7595C39.9115 20.8093 39.9284 20.8572 39.9558 20.8991C40.0481 21.041 40.1768 21.1475 40.3267 21.2068L46.8464 23.797L40.4697 26.7188C40.3501 26.774 40.246 26.8579 40.1666 26.9629C40.0872 27.068 40.0349 27.1911 40.0145 27.3212C39.994 27.4513 40.006 27.5844 40.0493 27.7088C40.0926 27.8332 40.166 27.9449 40.2629 28.0341L44.8538 32.236L39.667 32.682C39.6021 32.6876 39.5406 32.7134 39.491 32.7557C39.4415 32.7981 39.4065 32.8548 39.3909 32.9181C39.3752 32.9813 39.3798 33.0479 39.4038 33.1084C39.4279 33.1689 39.4703 33.2204 39.5252 33.2556L40.869 34.1164C40.9271 34.1538 40.9961 34.1706 41.0649 34.1643L46.8031 33.6715C46.9576 33.658 47.1048 33.5999 47.2268 33.5042C47.3488 33.4086 47.4403 33.2795 47.4903 33.1327C47.5402 32.9859 47.5464 32.8278 47.508 32.6776C47.4696 32.5273 47.3884 32.3915 47.2742 32.2867L42.2305 27.6701L49.2117 24.4721C49.5028 24.3388 49.685 24.046 49.6765 23.7247C49.6727 23.5681 49.623 23.4162 49.5334 23.2877C49.4439 23.1593 49.3185 23.06 49.1729 23.0023Z" fill="#488EFF"/>
</svg>
