<svg viewBox="0 0 156 31" fill="none" xmlns="http://www.w3.org/2000/svg">
<path d="M6.00074 30.083H0.15861V10.4683H6.00074V30.083ZM0 1.50679H6.13292V7.69258H0V1.50679ZM27.6774 16.7862V30.083H21.8617V17.7643C21.8617 15.9315 20.9982 15.0151 19.2711 15.0151C17.7731 15.0151 16.6276 15.6319 15.8346 16.8655V30.083H9.99243V16.0196L9.64877 10.4683H14.8829L15.3323 12.9796C16.7245 10.9881 18.8217 9.99243 21.6238 9.99243C23.6858 9.99243 25.2102 10.6357 26.1971 11.9222C27.184 13.1911 27.6774 14.8124 27.6774 16.7862ZM39.2295 26.1178C40.9742 26.1178 41.8466 25.4745 41.8466 24.188C41.8466 23.5712 41.6439 23.1218 41.2386 22.8398C40.8156 22.5402 40.049 22.3376 38.9388 22.2318C36.1014 22.0204 34.0659 21.5005 32.8323 20.6722C31.5986 19.8439 30.9818 18.5309 30.9818 16.7334V16.3897C30.9818 14.2397 31.7308 12.6359 33.2288 11.5785C34.7444 10.5211 36.7446 9.99243 39.2295 9.99243C44.728 9.99243 47.4772 12.2394 47.4772 16.7334V16.9184H41.7409C41.7409 15.2618 40.9038 14.4335 39.2295 14.4335C38.4365 14.4335 37.8285 14.5921 37.4055 14.9093C36.9649 15.2266 36.7446 15.6583 36.7446 16.2047C36.7446 16.8215 36.9473 17.2621 37.3526 17.5264C37.7404 17.8084 38.4805 17.9934 39.5732 18.0815C42.3224 18.3106 44.3755 18.8129 45.7325 19.5883C47.0719 20.3638 47.7416 21.7119 47.7416 23.6329V23.9765C47.7416 26.0561 47.019 27.6686 45.5739 28.8141C44.1288 29.9773 42.014 30.5589 39.2295 30.5589C36.445 30.5589 34.3391 29.9685 32.9116 28.7877C31.4665 27.6069 30.7439 26.0297 30.7439 24.0558V23.8708H36.5596C36.5596 25.3688 37.4496 26.1178 39.2295 26.1178ZM58.5535 4.91691V10.4683H63.5762V15.5702H58.5535V22.6548C58.5535 23.7827 58.7826 24.5405 59.2408 24.9282C59.7167 25.3335 60.448 25.5362 61.4349 25.5362C62.2808 25.5362 62.8712 25.4481 63.2061 25.2719V30.083C62.6421 30.4002 61.5935 30.5589 60.0603 30.5589C55.161 30.5589 52.7114 28.1268 52.7114 23.2628V15.5702H49.6978V10.4683H52.7114V4.91691H58.5535ZM83.8254 30.083H78.5648L78.1947 28.0475C76.6439 29.7217 74.5996 30.5589 72.0618 30.5589C69.9822 30.5589 68.4666 30.0125 67.515 28.9199C66.5457 27.8272 66.0611 26.4174 66.0611 24.6903V24.3202C66.0611 22.3464 66.6602 20.8836 67.8586 19.932C69.057 18.9979 70.8017 18.3635 73.0928 18.0287L77.6131 17.3149C77.5779 16.3104 77.3664 15.579 76.9787 15.1208C76.591 14.6626 75.9125 14.4335 74.9432 14.4335C73.1985 14.4335 72.3261 15.2706 72.3261 16.9448H66.8012V16.6012C66.8012 14.6626 67.4445 13.0765 68.731 11.8429C70.0175 10.6092 72.1499 9.99243 75.1283 9.99243C78.1947 9.99243 80.3448 10.6092 81.5784 11.8429C82.8297 13.0765 83.4553 14.9534 83.4553 17.4735V24.5317L83.8254 30.083ZM74.203 25.827C75.5424 25.827 76.6791 25.3335 77.6131 24.3466V20.7515L74.2823 21.2802C72.6786 21.5445 71.8767 22.32 71.8767 23.6065V23.8179C71.8767 24.3995 72.0706 24.8753 72.4583 25.2454C72.8284 25.6331 73.41 25.827 74.203 25.827ZM94.8223 7.90406V10.4683H99.1048V15.5702H94.8223V30.083H88.9802V15.5702H85.9666V10.4683H88.9802V7.29606C88.9802 2.43202 91.4298 0 96.3291 0C97.8624 0 98.9109 0.15861 99.4749 0.47583V5.287C99.1401 5.11077 98.5497 5.02265 97.7037 5.02265C96.7168 5.02265 95.9855 5.22532 95.5096 5.63065C95.0514 6.01837 94.8223 6.77617 94.8223 7.90406ZM119.936 19.7469V22.3904H107.432C107.538 23.7122 107.899 24.6639 108.516 25.2454C109.132 25.827 110.005 26.1178 111.133 26.1178C112.12 26.1178 112.921 25.8887 113.538 25.4305C114.138 24.9546 114.437 24.4083 114.437 23.7915H119.936V23.9501C119.936 25.871 119.16 27.4483 117.609 28.682C116.041 29.9332 113.873 30.5589 111.106 30.5589C107.969 30.5589 105.599 29.6689 103.995 27.8889C102.392 26.1266 101.59 23.7651 101.59 20.8043V19.7469C101.59 16.8215 102.392 14.4599 103.995 12.6624C105.599 10.8824 107.89 9.99243 110.868 9.99243C113.864 9.99243 116.129 10.8824 117.662 12.6624C119.178 14.4247 119.936 16.7862 119.936 19.7469ZM114.067 18.1608C113.891 15.676 112.789 14.4335 110.763 14.4335C108.736 14.4335 107.643 15.676 107.485 18.1608H114.067ZM130.827 26.1178C132.572 26.1178 133.444 25.4745 133.444 24.188C133.444 23.5712 133.241 23.1218 132.836 22.8398C132.413 22.5402 131.646 22.3376 130.536 22.2318C127.699 22.0204 125.663 21.5005 124.43 20.6722C123.196 19.8439 122.579 18.5309 122.579 16.7334V16.3897C122.579 14.2397 123.328 12.6359 124.826 11.5785C126.342 10.5211 128.342 9.99243 130.827 9.99243C136.325 9.99243 139.075 12.2394 139.075 16.7334V16.9184H133.338C133.338 15.2618 132.501 14.4335 130.827 14.4335C130.034 14.4335 129.426 14.5921 129.003 14.9093C128.562 15.2266 128.342 15.6583 128.342 16.2047C128.342 16.8215 128.545 17.2621 128.95 17.5264C129.338 17.8084 130.078 17.9934 131.17 18.0815C133.92 18.3106 135.973 18.8129 137.33 19.5883C138.669 20.3638 139.339 21.7119 139.339 23.6329V23.9765C139.339 26.0561 138.616 27.6686 137.171 28.8141C135.726 29.9773 133.611 30.5589 130.827 30.5589C128.042 30.5589 125.936 29.9685 124.509 28.7877C123.064 27.6069 122.341 26.0297 122.341 24.0558V23.8708H128.157C128.157 25.3688 129.047 26.1178 130.827 26.1178ZM150.151 4.91691V10.4683H155.173V15.5702H150.151V22.6548C150.151 23.7827 150.38 24.5405 150.838 24.9282C151.314 25.3335 152.045 25.5362 153.032 25.5362C153.878 25.5362 154.468 25.4481 154.803 25.2719V30.083C154.239 30.4002 153.191 30.5589 151.658 30.5589C146.758 30.5589 144.309 28.1268 144.309 23.2628V15.5702H141.295V10.4683H144.309V4.91691H150.151Z" fill="#2E3034"/>
</svg>
